<?xml version="1.0" standalone="no"?>
<!DOCTYPE svg PUBLIC "-//W3C//DTD SVG 20010904//EN"
 "http://www.w3.org/TR/2001/REC-SVG-20010904/DTD/svg10.dtd">
<svg version="1.0" xmlns="http://www.w3.org/2000/svg"
 width="468pt" height="154pt" viewBox="0 0 468 154"
 preserveAspectRatio="xMidYMid meet">
<metadata>
Created by potrace 1.8, written by Peter Selinger 2001-2007
</metadata>
<g transform="translate(0,154) scale(0.349254,-0.349254)"
fill="#000000" stroke="none">
<path d="M248 385 c-33 -18 -50 -47 -42 -69 4 -11 -3 -24 -20 -37 -17 -14 -26
-30 -26 -50 0 -27 2 -29 41 -29 53 0 78 14 95 55 18 44 18 45 -6 45 -21 0 -28
-16 -9 -22 9 -3 9 -10 0 -26 -13 -25 -57 -46 -77 -38 -22 8 3 65 32 72 21 5
22 8 9 21 -8 8 -15 20 -15 27 0 21 35 46 63 46 33 0 36 -24 5 -41 -20 -11 -20
-12 -3 -22 23 -13 47 17 43 53 -2 20 -9 25 -33 27 -16 2 -42 -4 -57 -12z"/>
<path d="M535 336 c-64 -29 -129 -115 -110 -145 12 -21 27 -11 21 14 -4 16 -2
25 5 25 6 0 9 6 6 14 -4 10 12 27 44 50 55 40 59 42 59 22 0 -7 -9 -16 -21
-19 -22 -6 -17 -27 6 -27 17 0 49 56 40 70 -8 13 -13 12 -50 -4z"/>
<path d="M990 333 c0 -5 5 -15 10 -23 7 -11 12 -12 21 -3 6 6 8 16 5 22 -8 12
-36 15 -36 4z"/>
<path d="M629 286 c-79 -54 -96 -134 -20 -92 21 12 27 12 39 0 10 -11 18 -11
34 -3 15 8 26 8 44 -1 12 -7 30 -10 38 -7 9 4 16 2 16 -3 0 -23 41 -7 67 25
20 24 36 35 55 35 55 0 34 15 -23 17 -55 1 -61 -1 -91 -33 -18 -19 -36 -34
-40 -34 -10 0 -10 40 0 40 4 0 22 14 41 31 25 23 30 34 22 42 -9 9 -25 -2 -66
-45 -50 -55 -77 -69 -89 -49 -3 4 4 17 15 27 33 30 43 55 28 65 -21 13 -31 11
-70 -15z m20 -36 c-47 -47 -66 -52 -44 -10 16 31 40 49 67 50 11 0 4 -12 -23
-40z m211 -13 c0 -2 -14 -14 -31 -26 -28 -21 -30 -21 -20 -3 6 11 7 22 4 26
-3 3 6 6 20 6 15 0 27 -1 27 -3z"/>
<path d="M1125 300 c-27 -7 -25 -8 18 -9 26 0 50 -2 54 -3 3 -2 8 3 11 10 4
13 -33 15 -83 2z"/>
<path d="M1010 270 c-10 -19 -77 -70 -92 -70 -4 0 -5 7 -1 16 4 12 2 15 -8 12
-19 -6 -18 -32 2 -36 8 -1 33 9 55 24 l39 26 -25 -27 -25 -28 30 7 c29 7 29 7
11 -13 -25 -28 -75 -40 -161 -40 -87 1 -258 -29 -335 -58 -40 -15 66 -22 185
-12 104 10 151 19 241 50 92 31 127 38 191 38 167 1 159 0 149 27 -6 15 -17
16 -97 10 -49 -4 -101 -11 -116 -17 -31 -12 -41 -5 -23 16 10 12 10 15 -4 15
-20 0 -20 9 -1 34 17 23 20 46 5 46 -5 0 -14 -9 -20 -20z m-160 -149 c0 -7
-128 -30 -205 -37 -33 -3 -45 -2 -35 4 18 11 120 31 175 35 22 1 46 2 53 3 6
0 12 -2 12 -5z"/>
<path d="M502 224 c-12 -8 -22 -23 -22 -32 0 -15 -2 -15 -10 -2 -11 17 -13 10
-4 -14 8 -21 34 -21 34 1 0 9 7 25 17 35 22 24 13 32 -15 12z"/>
</g>
</svg>
